<?xml version="1.0" encoding="UTF-8"?>
<svg xmlns="http://www.w3.org/2000/svg" viewBox="0 0 205 205">
  <g transform="translate(0, 25)">
    <polygon fill="#8a53a0" points="196.83 7.75 179.82 43.85 142.99 65.41 142.99 35.37 132.77 35.37 132.77 121.08 102.69 151.15 72.62 121.08 72.62 35.37 62.39 35.37 62.39 65.41 25.56 43.85 8.56 7.75 100.24 7.75 100.24 109.64 102.69 112.1 105.15 109.64 105.15 7.75 196.83 7.75"/>
    <polygon fill="#b577b2" points="193.07 7.75 177.19 41.45 146.39 59.48 146.39 31.97 129.37 31.97 129.37 119.67 102.69 146.35 76.02 119.67 76.02 31.97 58.99 31.97 58.99 59.48 28.19 41.45 12.32 7.75 100.24 7.75 100.24 109.64 102.69 112.1 105.15 109.64 105.15 7.75 193.07 7.75"/>
  </g>
</svg>