<?xml version="1.0" encoding="UTF-8"?>
<svg id="Layer_2" data-name="Layer 2" xmlns="http://www.w3.org/2000/svg" xmlns:xlink="http://www.w3.org/1999/xlink" viewBox="0 0 643.5 164">
  <defs>
    <style>
      .cls-1 {
        fill: #b577b3;
      }

      .cls-2 {
        fill: #fff;
      }

      .cls-3 {
        fill: url(#linear-gradient-3);
      }

      .cls-4 {
        fill: url(#linear-gradient-2);
        filter: url(#drop-shadow-1);
      }

      .cls-5 {
        fill: url(#linear-gradient);
      }
    </style>
    <linearGradient id="linear-gradient" x1="102.69" y1="-36.53" x2="102.69" y2="151.74" gradientUnits="userSpaceOnUse">
      <stop offset="0" stop-color="#b577b2"/>
      <stop offset="1" stop-color="#8a52a0"/>
    </linearGradient>
    <linearGradient id="linear-gradient-2" x1="104.16" y1="127.47" x2="102.97" y2="30.66" gradientUnits="userSpaceOnUse">
      <stop offset="0" stop-color="#b477b1"/>
      <stop offset="1" stop-color="#8a53a0"/>
    </linearGradient>
    <filter id="drop-shadow-1" x="0" y="0" width="206" height="164" filterUnits="userSpaceOnUse">
      <feOffset dx="0" dy="5"/>
      <feGaussianBlur result="blur" stdDeviation="4"/>
      <feFlood flood-color="#000" flood-opacity=".5"/>
      <feComposite in2="blur" operator="in"/>
      <feComposite in="SourceGraphic"/>
    </filter>
    <linearGradient id="linear-gradient-3" x1="549.66" y1="65.61" x2="643.5" y2="65.61" xlink:href="#linear-gradient-2"/>
  </defs>
  <g id="Page_1" data-name="Page 1">
    <g>
      <g>
        <polygon class="cls-5" points="196.83 7.75 179.82 43.85 142.99 65.41 142.99 35.37 132.77 35.37 132.77 121.08 102.69 151.15 72.62 121.08 72.62 35.37 62.39 35.37 62.39 65.41 25.56 43.85 8.56 7.75 100.24 7.75 100.24 109.64 102.69 112.1 105.15 109.64 105.15 7.75 196.83 7.75"/>
        <polygon class="cls-4" points="193.07 7.75 177.19 41.45 146.39 59.48 146.39 31.97 129.37 31.97 129.37 119.67 102.69 146.35 76.02 119.67 76.02 31.97 58.99 31.97 58.99 59.48 28.19 41.45 12.32 7.75 100.24 7.75 100.24 109.64 102.69 112.1 105.15 109.64 105.15 7.75 193.07 7.75"/>
      </g>
      <g>
        <g>
          <g id="Path_51" data-name="Path 51">
            <path class="cls-1" d="M485.15,114.37c41.24-1,82.95-1.01,124.2,0-41.24,1.01-82.95,1-124.2,0h0Z"/>
          </g>
          <g id="Path_51-2" data-name="Path 51">
            <path class="cls-1" d="M259.6,114.37c41.24-1,82.95-1.01,124.19,0-41.24,1.01-82.95,1-124.19,0h0Z"/>
          </g>
        </g>
        <g>
          <path class="cls-2" d="M303.45,37.44l-13.98,14.66h-20.05l-7.41,41.7h-17.44l7.33-41.7h-26.45l13.98-14.66h64.02Z"/>
          <path class="cls-2" d="M376.23,69.19c-3.03,17.02-16.09,25.52-39.59,25.52s-34.87-6.74-34.87-20.22c0-1.68.17-3.45.51-5.31l5.64-31.76h17.44l-5.73,31.76c-.17,1.18-.25,2.19-.25,3.12,0,5.9,4.38,7.92,19.79,7.92,13.48,0,18.11-3.12,19.54-11.03l5.64-31.76h17.52l-5.64,31.76Z"/>
          <path class="cls-2" d="M457.43,75.09c0,9.18-4.63,18.7-26.11,18.7h-49.53l6.07-34.28h49.87c2.86,0,5.56-1.1,5.56-4.46,0-2.19-2.11-2.95-4.3-2.95h-49.87l14.49-14.66h37.32c12.13,0,19.54,4.55,19.54,13.22,0,8.09-5.14,12.55-10.02,14.15,4.04,1.18,6.99,4.8,6.99,10.28ZM403.18,71.55l-1.35,7.75h32.09c4.3,0,6.23-1.68,6.23-4.55,0-2.11-1.52-3.2-4.89-3.2h-32.09Z"/>
          <path class="cls-2" d="M481.77,93.79l13.14-14.49h14.07c3.45,0,7.33,0,10.02.17-1.18-2.02-2.95-5.48-4.3-8.17l-7.5-14.91-33.02,37.4h-20.64l45.15-50.96c2.95-3.29,6.91-6.32,12.38-6.32s8.17,2.78,10.02,6.32l26.2,50.96h-65.53Z"/>
          <path class="cls-3" d="M643.5,37.44l-20.64,16.26c-9.1,7.08-12.13,9.35-14.4,10.95,1.68,1.35,6.15,6.4,11.37,12.21l15.08,16.93h-24.6l-15.92-18.62-23.08,18.62h-21.65l21.31-16.93c10.02-7.92,12.8-9.94,15.16-11.54-1.77-1.52-3.62-3.45-11.03-11.71l-14.32-16.17h24.09l14.83,17.52,21.23-17.52h22.57Z"/>
        </g>
        <g>
          <path class="cls-2" d="M404.42,122.39c-1.05,0-1.96-.11-2.74-.33-.78-.22-1.44-.54-1.97-.95-.53-.41-.94-.9-1.22-1.48-.28-.58-.45-1.23-.5-1.96h1.12c.11.7.32,1.28.64,1.74.31.46.69.83,1.15,1.1s.98.47,1.56.58c.58.11,1.21.17,1.87.17s1.31-.07,1.86-.22c.55-.15,1.02-.36,1.41-.64.39-.28.69-.61.9-1s.31-.83.31-1.32c0-.52-.09-.95-.27-1.31-.18-.35-.48-.66-.9-.93-.42-.26-.98-.5-1.67-.71-.69-.21-1.55-.42-2.58-.64-.85-.19-1.58-.41-2.18-.65-.61-.24-1.11-.53-1.51-.85s-.69-.7-.88-1.12-.28-.91-.28-1.46c0-.6.13-1.15.38-1.65.25-.5.61-.93,1.08-1.29.47-.36,1.03-.64,1.68-.83.65-.2,1.38-.3,2.17-.3s1.52.09,2.18.28c.66.18,1.24.45,1.73.8.5.35.9.77,1.2,1.27.31.5.5,1.06.59,1.7h-1.09c-.1-.41-.27-.8-.51-1.16-.24-.36-.54-.67-.91-.93-.37-.26-.81-.46-1.33-.61-.51-.15-1.1-.22-1.76-.22-1.39,0-2.43.25-3.14.76-.71.51-1.07,1.21-1.07,2.09,0,.41.07.76.2,1.06.13.3.36.57.67.81.32.24.73.45,1.25.64.52.18,1.16.36,1.94.52.45.09.92.19,1.4.3.48.1.95.23,1.41.37.46.14.89.32,1.31.52s.78.46,1.08.76c.31.3.55.66.74,1.08s.28.92.28,1.49c0,.66-.14,1.26-.42,1.82-.28.55-.66,1.03-1.16,1.43-.5.4-1.08.71-1.77.93-.68.22-1.42.33-2.23.33Z"/>
          <path class="cls-2" d="M424.03,107.77h-5.41v14.34h-1.13v-14.34h-5.36v-1.13h11.9v1.13Z"/>
          <path class="cls-2" d="M433.36,106.35c1.06,0,2.03.19,2.93.57.89.38,1.66.91,2.31,1.61.65.7,1.15,1.54,1.51,2.52.36.98.54,2.07.54,3.28s-.18,2.29-.54,3.28c-.36.99-.86,1.84-1.5,2.55s-1.41,1.26-2.3,1.65c-.89.39-1.87.59-2.95.59s-2.06-.2-2.95-.59-1.67-.94-2.31-1.65-1.15-1.55-1.5-2.54c-.36-.99-.54-2.09-.54-3.29s.18-2.31.54-3.29c.36-.98.87-1.82,1.52-2.51.65-.69,1.42-1.23,2.31-1.6.89-.38,1.87-.57,2.93-.57ZM433.35,121.26c.89,0,1.7-.15,2.45-.46.75-.31,1.4-.76,1.94-1.35.55-.59.97-1.32,1.27-2.18.3-.86.45-1.84.45-2.95s-.15-2.09-.46-2.94c-.31-.85-.73-1.56-1.27-2.14-.54-.58-1.18-1.02-1.92-1.31s-1.55-.45-2.42-.45-1.72.15-2.47.45c-.75.3-1.4.74-1.94,1.32-.55.58-.97,1.29-1.28,2.14-.31.85-.46,1.82-.46,2.93s.15,2.08.45,2.95c.3.86.72,1.59,1.26,2.18.54.59,1.19,1.04,1.94,1.35.75.31,1.57.46,2.45.46Z"/>
          <path class="cls-2" d="M456.32,122.11h-1.24l-1.54-4.11c-.15-.4-.32-.77-.5-1.12-.18-.35-.4-.65-.64-.91-.25-.26-.53-.46-.84-.61-.32-.15-.69-.23-1.11-.23h-5.41v6.98h-1.13v-15.47h6.97c.65,0,1.28.06,1.89.18.61.12,1.15.33,1.63.63s.85.72,1.14,1.25c.28.53.42,1.21.42,2.04,0,.52-.06,1-.19,1.45-.13.45-.32.85-.58,1.2-.26.35-.59.65-.99.9-.4.25-.87.43-1.41.54.29.23.53.44.72.65s.35.43.49.66c.14.24.26.49.37.78.11.28.23.61.37.97l1.6,4.21ZM445.03,114h5.37c.76,0,1.42-.06,1.96-.17.55-.11,1-.3,1.35-.56.35-.26.61-.6.78-1.01s.25-.92.25-1.53c0-1.06-.34-1.83-1.01-2.28-.67-.46-1.68-.69-3.02-.69h-5.7v6.23Z"/>
          <path class="cls-2" d="M470.96,122.11h-11.18v-15.47h10.8v1.13h-9.67v5.72h9.06v1.13h-9.06v6.36h10.05v1.13Z"/>
        </g>
      </g>
    </g>
  </g>
</svg>